<svg width="20" height="20" viewBox="0 0 20 20" fill="none" xmlns="http://www.w3.org/2000/svg">
<path d="M6.27149 0.739502C3.25383 0.739502 0.798462 3.19856 0.798462 6.21973V14.0467C0.798462 17.0675 3.25528 19.5255 6.27369 19.5255H14.0936C17.1116 19.5255 19.5673 17.0664 19.5673 14.0453V6.21752C19.5673 3.19711 17.1105 0.739502 14.0921 0.739502H6.27149ZM15.8135 3.74526C16.228 3.74526 16.5643 4.0819 16.5643 4.4967C16.5643 4.91149 16.228 5.24814 15.8135 5.24814C15.3991 5.24814 15.0628 4.91149 15.0628 4.4967C15.0628 4.0819 15.3991 3.74526 15.8135 3.74526ZM10.1829 5.24814C12.8743 5.24814 15.0628 7.43858 15.0628 10.1325C15.0628 12.8264 12.874 15.0168 10.1829 15.0168C7.49144 15.0168 5.30299 12.826 5.30299 10.1325C5.30299 7.43896 7.49144 5.24814 10.1829 5.24814ZM10.1829 6.75102C8.31689 6.75102 6.8045 8.26479 6.8045 10.1325C6.8045 12.0002 8.31689 13.514 10.1829 13.514C12.0489 13.514 13.5613 12.0002 13.5613 10.1325C13.5613 8.26479 12.0489 6.75102 10.1829 6.75102Z" fill="#F33333"/>
</svg>
