<svg width="23" height="32" viewBox="0 0 23 32" fill="none" xmlns="http://www.w3.org/2000/svg">
<path d="M11.3625 31.815C11.0511 31.815 10.7533 31.6874 10.5387 31.4617C10.1126 31.0083 0 20.2651 0 11.3626C0.0397244 8.36153 1.24965 5.49444 3.37193 3.37193C5.49416 1.2497 8.36142 0.0397687 11.3626 0C14.3636 0.0397244 17.2307 1.24965 19.3533 3.37193C21.4755 5.49416 22.6854 8.36142 22.7252 11.3626C22.7252 20.2651 12.6126 31.0083 12.1865 31.4617C11.9719 31.6874 11.6741 31.815 11.3627 31.815H11.3625ZM11.3625 2.27254C8.96147 2.30428 6.6679 3.27233 4.96995 4.96999C3.27222 6.66794 2.3042 8.96152 2.2725 11.3625C2.2725 17.9823 8.98204 26.2542 11.3625 28.98C13.7417 26.253 20.4525 17.9732 20.4525 11.3682C20.4221 8.96612 19.4549 6.67118 17.757 4.9717C16.0588 3.27267 13.7644 2.30396 11.3628 2.2722L11.3625 2.27254Z" fill="#D48A5C"/>
<path d="M11.3625 15.9076C10.157 15.9076 9.00104 15.4287 8.14863 14.5765C7.29644 13.7241 6.81751 12.5681 6.81751 11.3626C6.81751 10.1572 7.29642 9.00115 8.14863 8.14874C9.00104 7.29655 10.1571 6.81763 11.3625 6.81763C12.5679 6.81763 13.724 7.29654 14.5764 8.14874C15.4286 9.00115 15.9075 10.1572 15.9075 11.3626C15.9075 12.5681 15.4286 13.7241 14.5764 14.5765C13.724 15.4287 12.5679 15.9076 11.3625 15.9076ZM11.3625 9.09012C10.7598 9.09012 10.1819 9.32957 9.75556 9.75568C9.32947 10.182 9.09001 10.7599 9.09001 11.3626C9.09001 11.9653 9.32946 12.5432 9.75556 12.9696C10.1819 13.3956 10.7598 13.6351 11.3625 13.6351C11.9652 13.6351 12.5431 13.3957 12.9694 12.9696C13.3955 12.5432 13.635 11.9653 13.635 11.3626C13.635 10.7599 13.3955 10.182 12.9694 9.75568C12.5431 9.32959 11.9652 9.09012 11.3625 9.09012Z" fill="#D48A5C"/>
</svg>
