<svg width="25" height="22" viewBox="0 0 25 22" fill="none" xmlns="http://www.w3.org/2000/svg">
<path d="M24.3456 3.29377C23.4653 3.70351 22.5186 3.97667 21.52 4.10576C22.5354 3.47265 23.3164 2.46284 23.6829 1.26975C22.733 1.85484 21.6807 2.28441 20.5608 2.51086C19.6666 1.51515 18.3912 0.897461 16.9782 0.897461C14.2637 0.897461 12.0639 3.18848 12.0639 6.01303C12.0639 6.41264 12.1084 6.80211 12.1922 7.18013C8.10882 6.96468 4.48717 4.92568 2.06421 1.83105C1.63851 2.58708 1.39902 3.47265 1.39902 4.40712C1.39902 6.1831 2.26469 7.74627 3.58459 8.66752C2.7789 8.64153 2.02059 8.40626 1.35666 8.02868C1.35666 8.0441 1.35666 8.06701 1.35666 8.0886C1.35666 10.5704 3.0511 12.6367 5.29706 13.1072C4.88646 13.2253 4.45278 13.291 4.00568 13.291C3.68819 13.291 3.37908 13.2531 3.07962 13.1967C3.70496 15.2247 5.51935 16.7072 7.66885 16.7508C5.987 18.1206 3.86896 18.941 1.56553 18.941C1.1675 18.941 0.778707 18.9172 0.394104 18.8683C2.56961 20.3156 5.15362 21.1641 7.92721 21.1641C16.9652 21.1641 21.9092 13.3676 21.9092 6.60429C21.9092 6.38268 21.9025 6.16195 21.8925 5.94386C22.8575 5.22836 23.6888 4.32517 24.3456 3.29377Z" fill="#00B2FF"/>
</svg>
